<mxfile host="app.diagrams.net" modified="2023-05-17T21:34:45.661Z" agent="Mozilla/5.0 (Windows NT 10.0; WOW64) AppleWebKit/537.36 (KHTML, like Gecko) Chrome/98.0.4758.109 Safari/537.36 OPR/84.0.4316.43" version="21.3.2" etag="BWiKNzYkxmEXgM73hIKo" type="github">
  <diagram name="PÃ¡gina-1" id="wS4_P4_sfiDXvXNpWhGm">
    <mxGraphModel>
      <root>
        <mxCell id="0" />
        <mxCell id="1" parent="0" />
      </root>
    </mxGraphModel>
  </diagram>
</mxfile>
